<svg width="30" height="28" viewBox="0 0 30 28" fill="none" xmlns="http://www.w3.org/2000/svg">
<path d="M28.9537 11.3886H27.8103V11.3333H15.0345V16.6666H23.057C21.8866 19.7713 18.7416 22 15.0345 22C10.3308 22 6.51725 18.418 6.51725 14C6.51725 9.58196 10.3308 5.99996 15.0345 5.99996C17.2056 5.99996 19.1809 6.76929 20.6849 8.02596L24.7001 4.25463C22.1648 2.03529 18.7735 0.666626 15.0345 0.666626C7.19508 0.666626 0.839111 6.63663 0.839111 14C0.839111 21.3633 7.19508 27.3333 15.0345 27.3333C22.8738 27.3333 29.2298 21.3633 29.2298 14C29.2298 13.106 29.1319 12.2333 28.9537 11.3886Z" fill="#FFC107"/>
</svg>
