<svg width="20" height="20" viewBox="0 0 20 20" fill="none" xmlns="http://www.w3.org/2000/svg">
<path d="M10.344 0.751465C9.09644 0.751465 7.86109 1.00329 6.7085 1.49256C5.55591 1.98184 4.50864 2.69897 3.62648 3.60303C1.84488 5.42886 0.843994 7.90521 0.843994 10.4873C0.843994 14.7906 3.57049 18.4415 7.34199 19.7364C7.81699 19.8143 7.96899 19.5125 7.96899 19.2496V17.6042C5.33749 18.1884 4.77699 16.2996 4.77699 16.2996C4.33999 15.1703 3.72249 14.8685 3.72249 14.8685C2.85799 14.2648 3.78899 14.2843 3.78899 14.2843C4.73899 14.3525 5.24249 15.2871 5.24249 15.2871C6.06899 16.7669 7.46549 16.3288 8.00699 16.0952C8.09249 15.4623 8.33949 15.034 8.60549 14.7906C6.49649 14.5472 4.28299 13.7099 4.28299 10.0005C4.28299 8.91985 4.64399 8.05336 5.26149 7.36211C5.16649 7.11871 4.83399 6.10619 5.35649 4.79185C5.35649 4.79185 6.15449 4.52898 7.96899 5.7849C8.71949 5.57071 9.53649 5.46362 10.344 5.46362C11.1515 5.46362 11.9685 5.57071 12.719 5.7849C14.5335 4.52898 15.3315 4.79185 15.3315 4.79185C15.854 6.10619 15.5215 7.11871 15.4265 7.36211C16.044 8.05336 16.405 8.91985 16.405 10.0005C16.405 13.7196 14.182 14.5374 12.0635 14.7808C12.4055 15.0826 12.719 15.6765 12.719 16.582V19.2496C12.719 19.5125 12.871 19.824 13.3555 19.7364C17.127 18.4318 19.844 14.7906 19.844 10.4873C19.844 9.20879 19.5983 7.94278 19.1208 6.76157C18.6434 5.58036 17.9437 4.50709 17.0615 3.60303C16.1794 2.69897 15.1321 1.98184 13.9795 1.49256C12.8269 1.00329 11.5916 0.751465 10.344 0.751465Z" fill="white"/>
</svg>
